name p10_grf_mean_speed_1.2
datacolumns 13
datarows 22
range 0.0000000000 0.2100000000
endheader
time	grf_x_l_mean	grf_x_l_var	grf_y_l_mean	grf_y_l_var	grf_z_l_mean	grf_z_l_var	grf_x_r_mean	grf_x_r_var	grf_y_r_mean	grf_y_r_var	grf_z_r_mean	grf_z_r_var
0.0000000000	107.4102006851	1.0000000000	1052.8784006887	1.0000000000	0.0000000000	0.0000000000	18.9556658297	1.0000000000	11.2130194093	1.0000000000	0.0000000000	0.0000000000
0.0100000000	115.9069167435	1.0000000000	1047.6437743677	1.0000000000	0.0000000000	0.0000000000	35.1578230011	1.0000000000	56.6819715137	1.0000000000	0.0000000000	0.0000000000
0.0200000000	129.0700243838	1.0000000000	1037.7081760071	1.0000000000	0.0000000000	0.0000000000	49.1801694399	1.0000000000	133.6714551657	1.0000000000	0.0000000000	0.0000000000
0.0300000000	146.1615720698	1.0000000000	1019.0657633722	1.0000000000	0.0000000000	0.0000000000	46.7122210065	1.0000000000	233.5936813834	1.0000000000	0.0000000000	0.0000000000
0.0400000000	164.1390700505	1.0000000000	985.6989613199	1.0000000000	0.0000000000	0.0000000000	20.0034204912	1.0000000000	338.7602103585	1.0000000000	0.0000000000	0.0000000000
0.0500000000	181.0584686754	1.0000000000	933.2765838059	1.0000000000	0.0000000000	0.0000000000	-17.1736447330	1.0000000000	437.3198447645	1.0000000000	0.0000000000	0.0000000000
0.0600000000	195.8031889464	1.0000000000	859.6290125359	1.0000000000	0.0000000000	0.0000000000	-50.0396458515	1.0000000000	525.8104487119	1.0000000000	0.0000000000	0.0000000000
0.0700000000	202.1167883911	1.0000000000	763.2778549816	1.0000000000	0.0000000000	0.0000000000	-78.6071179453	1.0000000000	603.3738686817	1.0000000000	0.0000000000	0.0000000000
0.0800000000	196.9421379225	1.0000000000	645.6257312558	1.0000000000	0.0000000000	0.0000000000	-102.3212759891	1.0000000000	670.6191166362	1.0000000000	0.0000000000	0.0000000000
0.0900000000	178.8887756731	1.0000000000	514.0446810465	1.0000000000	0.0000000000	0.0000000000	-120.1747327569	1.0000000000	732.7521703204	1.0000000000	0.0000000000	0.0000000000
0.1000000000	144.7266490198	1.0000000000	379.4208982872	1.0000000000	0.0000000000	0.0000000000	-136.0112708411	1.0000000000	793.1428637324	1.0000000000	0.0000000000	0.0000000000
0.1100000000	101.2737525359	1.0000000000	254.8547537513	1.0000000000	0.0000000000	0.0000000000	-147.2140998307	1.0000000000	851.1625128903	1.0000000000	0.0000000000	0.0000000000
0.1200000000	57.2226750203	1.0000000000	154.1511654790	1.0000000000	0.0000000000	0.0000000000	-152.0741422647	1.0000000000	908.5485219237	1.0000000000	0.0000000000	0.0000000000
0.1300000000	19.6582246992	1.0000000000	84.2657211822	1.0000000000	0.0000000000	0.0000000000	-153.7946224649	1.0000000000	966.6536261530	1.0000000000	0.0000000000	0.0000000000
0.1400000000	-3.1469094495	1.0000000000	41.1273339016	1.0000000000	0.0000000000	0.0000000000	-150.9300560198	1.0000000000	1020.0475693859	1.0000000000	0.0000000000	0.0000000000
0.1500000000	-12.8156881990	1.0000000000	17.2034533399	1.0000000000	0.0000000000	0.0000000000	-143.2680672311	1.0000000000	1062.0930966792	1.0000000000	0.0000000000	0.0000000000
0.1600000000	-14.7799860061	1.0000000000	5.8626872419	1.0000000000	0.0000000000	0.0000000000	-134.1950315433	1.0000000000	1090.3344026795	1.0000000000	0.0000000000	0.0000000000
0.1700000000	-9.7811060179	1.0000000000	0.7982766125	1.0000000000	0.0000000000	0.0000000000	-123.3548681413	1.0000000000	1103.6222620866	1.0000000000	0.0000000000	0.0000000000
0.1800000000	0.0000000000	1.0000000000	0.0000000000	1.0000000000	0.0000000000	0.0000000000	-110.9995758146	1.0000000000	1100.8597426144	1.0000000000	0.0000000000	0.0000000000
0.1900000000	0.0000000000	1.0000000000	0.0000000000	1.0000000000	0.0000000000	0.0000000000	-99.0698476284	1.0000000000	1082.8452466964	1.0000000000	0.0000000000	0.0000000000
0.2000000000	0.0000000000	1.0000000000	0.0000000000	1.0000000000	0.0000000000	0.0000000000	-86.2662763341	1.0000000000	1052.5813956799	1.0000000000	0.0000000000	0.0000000000
0.2100000000	0.0000000000	1.0000000000	0.0000000000	1.0000000000	0.0000000000	0.0000000000	-74.0716407683	1.0000000000	1013.6163955101	1.0000000000	0.0000000000	0.0000000000
